<svg xmlns="http://www.w3.org/2000/svg" width="800" height="337" fill="none" viewBox="0 0 800 337">
  <path fill="#03045E" d="M400 336.939c220.914 0 400-6.391 400-14.274 0-7.883-179.086-14.273-400-14.273S0 314.782 0 322.665s179.086 14.274 400 14.274z"/>
  <path fill="#03045E" d="M711.98 242.849a16.811 16.811 0 002.222-8.524c0-7.701-4.758-13.947-10.657-13.947-5.9 0-10.651 6.246-10.651 13.947a16.811 16.811 0 002.222 8.524 17.456 17.456 0 000 17.047 17.441 17.441 0 000 17.039 17.46 17.46 0 000 17.047 16.811 16.811 0 00-2.222 8.524c0 7.7 4.758 13.947 10.651 13.947 5.892 0 10.657-6.247 10.657-13.947a16.811 16.811 0 00-2.222-8.524 17.456 17.456 0 000-17.047 17.442 17.442 0 000-17.039 17.46 17.46 0 000-17.047z"/>
  <path fill="#03045E" d="M703.517 231.226c5.883 0 10.651-6.244 10.651-13.947 0-7.703-4.768-13.948-10.651-13.948-5.882 0-10.65 6.245-10.65 13.948s4.768 13.947 10.65 13.947z"/>
  <path fill="#03045E" d="M703.517 214.179c5.883 0 10.651-6.244 10.651-13.947 0-7.703-4.768-13.947-10.651-13.947-5.882 0-10.65 6.244-10.65 13.947 0 7.703 4.768 13.947 10.65 13.947z"/>
  <path fill="#57B894" d="M663.64 83.583a51.326 51.326 0 01-3.97-5.839l27.997-4.594-30.28.224a51.118 51.118 0 01-.972-40.435l40.618 21.07-37.458-27.534A51.021 51.021 0 01692.34 2.256a51.029 51.029 0 0161.856 41.903 51.032 51.032 0 01-10.339 39.41 50.348 50.348 0 015.818 9.312l-36.336 18.889 38.743-13.003a51.07 51.07 0 01-8.231 47.919 51.027 51.027 0 015.804 53.849 51.033 51.033 0 01-91.813 0 51.038 51.038 0 015.805-53.849 51.031 51.031 0 010-63.103h-.007z"/>
  <path fill="#000" d="M754.8 115.134a50.807 50.807 0 01-10.922 31.552 51.027 51.027 0 015.804 53.849 51.026 51.026 0 01-72.987 20.964 51.038 51.038 0 01-13.021-74.813c-6.872-8.68 91.126-37.275 91.126-31.552z" opacity=".1"/>
  <path fill="#F2F2F2" d="M669.553 5.758H130.447c-7.665 0-13.879 6.214-13.879 13.88v282.181c0 7.665 6.214 13.879 13.879 13.879h539.106c7.666 0 13.879-6.214 13.879-13.879V19.637c0-7.665-6.213-13.88-13.879-13.88z"/>
  <path fill="#0077B6" d="M116.907 21.051h182.158v294.987H130.787a13.877 13.877 0 01-13.88-13.879V21.051z"/>
  <path fill="#03045E" d="M683.432 19.637v7.878H116.568v-7.878a13.883 13.883 0 014.065-9.812 13.873 13.873 0 019.814-4.06h539.106a13.875 13.875 0 0113.879 13.872z"/>
  <path fill="#0077B6" d="M131.181 21.051a4.078 4.078 0 100-8.157 4.078 4.078 0 000 8.157zM141.376 21.051a4.078 4.078 0 10.001-8.157 4.078 4.078 0 00-.001 8.157zM151.572 21.051a4.078 4.078 0 100-8.157 4.078 4.078 0 000 8.157z"/>
  <path fill="#0077B6" d="M649.964 64.293H415.796a.843.843 0 00-.843.843v5.79c0 .466.378.844.843.844h234.168a.843.843 0 00.843-.843v-5.791a.843.843 0 00-.843-.843z" opacity=".3"/>
  <path fill="#0077B6" d="M646.566 78.567h-47.932a.843.843 0 00-.843.843v15.306c0 .466.377.843.843.843h47.932a.843.843 0 00.843-.843V79.41a.843.843 0 00-.843-.843z"/>
  <path fill="#0077B6" d="M649.964 155.209H415.796a.843.843 0 00-.843.843v5.791c0 .465.378.843.843.843h234.168a.843.843 0 00.843-.843v-5.791a.842.842 0 00-.843-.843z" opacity=".3"/>
  <path fill="#0077B6" d="M646.566 169.483h-47.932a.842.842 0 00-.843.842v15.307c0 .466.377.843.843.843h47.932a.843.843 0 00.843-.843v-15.307a.843.843 0 00-.843-.842z"/>
  <path fill="#0077B6" d="M649.964 247.647H415.796a.844.844 0 00-.843.843v5.791c0 .466.378.843.843.843h234.168a.842.842 0 00.843-.843v-5.791a.843.843 0 00-.843-.843z" opacity=".3"/>
  <path fill="#0077B6" d="M646.566 261.921h-47.932a.842.842 0 00-.843.843v15.307c0 .465.377.842.843.842h47.932a.843.843 0 00.843-.842v-15.307a.843.843 0 00-.843-.843z"/>
  <path fill="#03045E" d="M363.766 204.5c18.589 0 33.658-15.069 33.658-33.658s-15.069-33.658-33.658-33.658c-18.59 0-33.659 15.069-33.659 33.658s15.069 33.658 33.659 33.658z"/>
  <path fill="#192534" d="M393.468 188.596a.958.958 0 01-.143.224 20.868 20.868 0 01-1.189 1.76 33.533 33.533 0 01-14.783 11.521c-.585.245-1.183.469-1.788.68a11.987 11.987 0 01-1.55-1.489 11.62 11.62 0 01-2.718-5.634c-.896.172-1.807.259-2.719.258a1.764 1.764 0 01-.272 0c-7.001-.122-13.009-5.247-15.694-12.561l-.109-.313a25.412 25.412 0 01-.53-14.776c.034-.163.088-.326.136-.483 2.297-7.891 8.36-13.641 15.572-14.097h1.556c9.135.334 16.489 9.17 16.829 20.221a11.744 11.744 0 015.173 11.501 12.009 12.009 0 012.229 3.188z"/>
  <path fill="#000" d="M393.325 188.82a20.868 20.868 0 01-1.189 1.76 11.102 11.102 0 00-1.815-2.413c.078-.56.119-1.126.123-1.692a11.73 11.73 0 00-5.295-9.808c-.374-11.283-8.048-20.296-17.448-20.296-6.715 0-12.54 4.581-15.47 11.31-.075.177-.143.347-.224.531a32.59 32.59 0 00-.68 1.794 25 25 0 01.999-3.657l.095-.095c2.617-7.212 8.463-12.33 15.328-12.636h1.556c9.006.544 16.218 9.339 16.564 20.276a11.71 11.71 0 015.186 11.5 11.58 11.58 0 012.27 3.426z" opacity=".1"/>
  <path fill="#A0616A" d="M357.859 179.168a4.418 4.418 0 01-.231 2.039c-.401.931-1.36 1.768-1.094 2.719a2.08 2.08 0 001.468 1.183c2.929.992 6.117.401 9.216.537 1.033.09 2.07.126 3.107.108a4.947 4.947 0 002.881-1.005 24.703 24.703 0 01-4.533-2.848 5.118 5.118 0 01-.918-.877 5.383 5.383 0 01-.795-3.113v-3.236c-2.216 0-4.425-.034-6.641-.034-.679 0-2.875-.169-3.126.599-.123.38.353 1.502.428 1.93.114.661.194 1.328.238 1.998z"/>
  <path fill="#000" d="M357.859 179.168a4.418 4.418 0 01-.231 2.039c-.401.931-1.36 1.768-1.094 2.719a2.08 2.08 0 001.468 1.183c2.929.992 6.117.401 9.216.537 1.033.09 2.07.126 3.107.108a4.947 4.947 0 002.881-1.005 24.703 24.703 0 01-4.533-2.848 5.118 5.118 0 01-.918-.877 5.383 5.383 0 01-.795-3.113v-3.236c-2.216 0-4.425-.034-6.641-.034-.679 0-2.875-.169-3.126.599-.123.38.353 1.502.428 1.93.114.661.194 1.328.238 1.998z" opacity=".1"/>
  <path fill="#A0616A" d="M362.413 178.189a7.81 7.81 0 10-7.81-7.809 7.81 7.81 0 007.81 7.809z"/>
  <path fill="#0077B6" d="M377.223 193.034c0 .211-.04.435-.074.68a20.712 20.712 0 01-1.108 3.704 17.858 17.858 0 01-1.033 2.365c-.293.524-.68 1.006-.993 1.516l-.448.727a9.983 9.983 0 00-.728 1.536 28.871 28.871 0 01-3.989.728 33.44 33.44 0 01-3.963.238c-7.103 0-14.763-1.842-20.194-5.608 0 0 .796-.55.68-.68 0-.312-.034-.618-.034-.931a6.995 6.995 0 01.387-2.365 4.762 4.762 0 011.176-1.93c.68-.68 1.591-1.102 2.318-1.754a6.874 6.874 0 001.896-3.297c.17-.543.293-1.121.408-1.678a8.156 8.156 0 01.625-2.209c.044-.09.094-.177.15-.259.104-.174.227-.336.367-.482a7.932 7.932 0 012.393-1.604c.74-.381 1.78-.68 2.297-.048v.048c.169.388.312.788.428 1.196.415.856 1.57.965 2.508.945a79.613 79.613 0 009.91-.83l1.591-.258c1.148-.19 1.95.816 2.596 1.795 1.672 2.521 3.086 5.424 2.834 8.455z"/>
  <path stroke="#000" stroke-miterlimit="10" d="M353.373 193.564c-.727.163-1.149.897-1.489 1.563a6.044 6.044 0 00-.808 3.63c-.02.497.032.993.156 1.475.125.485.432.903.856 1.169" opacity=".1"/>
  <path fill="#192534" d="M372.873 166.932c.59-2.306-2.721-5.143-7.394-6.338-4.674-1.195-8.94-.294-9.53 2.012-.589 2.305 2.722 5.143 7.395 6.338 4.673 1.195 8.94.294 9.529-2.012z"/>
  <path fill="#000" d="M363.779 167.308c-4.153-1.061-7.225-3.399-7.477-5.547a2.191 2.191 0 00-.407.823c-.592 2.304 2.718 5.138 7.388 6.334 4.669 1.197 8.938.293 9.516-2.039.065-.257.084-.524.054-.788-1.244 1.713-5.003 2.256-9.074 1.217z" opacity=".1"/>
  <path fill="#A0616A" d="M377.427 198.573c0 1.183 0 2.359-.074 3.528-.585.245-1.183.469-1.788.68-.891.309-1.799.568-2.719.775a29.005 29.005 0 01-3.99.727c-.237-2.814-.774-5.526-.509-8.381a13.5 13.5 0 012.188-6.117 5.227 5.227 0 011.978-1.91 2.434 2.434 0 012.603.204 3.72 3.72 0 01.938 1.733 28.63 28.63 0 011.101 3.908c0 .143.048.3.068.449a26.79 26.79 0 01.204 4.404z"/>
  <path fill="#03045E" d="M397.417 263.28a33.513 33.513 0 01-4.078 16.116 25.9 25.9 0 01-.965 1.638.938.938 0 01-.143.224 21.374 21.374 0 01-1.189 1.761 33.28 33.28 0 01-9.618 8.917l-.197.136a34.902 34.902 0 01-4.969 2.467c-.38.157-.734.3-1.114.422-.191.081-.395.149-.592.217a.258.258 0 00-.068 0c-.414.15-.843.279-1.264.408l-.319.075c-.381.116-.762.211-1.142.292-1.314.337-2.649.58-3.997.728-1.306.158-2.62.237-3.935.237h-.408a30.521 30.521 0 01-5.438-.503l-.326-.054c-.333-.054-.68-.122-.999-.204l-.632-.143a20.008 20.008 0 01-1.985-.543 32.345 32.345 0 01-3.895-1.448l-.142-.061a33.296 33.296 0 01-5.295-3.011 3.673 3.673 0 01-.408-.279 33.653 33.653 0 0120.744-61.031 33.643 33.643 0 0128.134 17.156 33.647 33.647 0 014.308 16.477l-.068.006z"/>
  <path fill="#192534" d="M371.908 255.172a7.142 7.142 0 01-14.273 0v-.34a7.138 7.138 0 0114.273 0c-.007.109 0 .224 0 .34z"/>
  <path fill="#000" d="M371.908 255.172a7.142 7.142 0 01-14.273 0v-.34a11.266 11.266 0 0114.273 0c-.007.109 0 .224 0 .34z" opacity=".1"/>
  <path fill="#192534" d="M364.765 275.467c6.227 0 11.276-5.048 11.276-11.276 0-6.227-5.049-11.276-11.276-11.276-6.228 0-11.276 5.049-11.276 11.276 0 6.228 5.048 11.276 11.276 11.276z"/>
  <path fill="#192534" d="M357.934 253.595a7.141 7.141 0 016.199-7.076 7.144 7.144 0 100 14.158 7.143 7.143 0 01-6.199-7.082zM352.041 268.772a7.14 7.14 0 01-1.203-9.332c-.241.213-.468.44-.68.68a7.123 7.123 0 00-1.472 2.416 7.135 7.135 0 001.99 7.793 7.133 7.133 0 005.257 1.766 7.13 7.13 0 004.937-2.527c.208-.237.401-.487.578-.748a7.147 7.147 0 01-9.407-.048z"/>
  <path fill="#FFC1C7" d="M358.865 278.492a6.308 6.308 0 00-1.686.591c-.938.68-.904 2.039-.625 3.147.639 2.529 2.202 4.955 4.595 5.988 1.481.547 3.06.778 4.635.68 1.706 0 3.637-.231 4.697-1.577.477-.71.804-1.51.958-2.352.524-2.039 1.054-4.146.863-6.253-1.033.089-2.188.15-3.004-.503-.815-.652-.999-1.896-1.359-2.929a.772.772 0 00-.265-.422.874.874 0 00-.476-.068 19.173 19.173 0 01-3.249-.136c-.68-.088-2.325-.788-2.828-.197-.367.429-.135 1.734-.421 2.338a3.231 3.231 0 01-1.835 1.693z"/>
  <path fill="#000" d="M358.865 278.492a6.308 6.308 0 00-1.686.591c-.938.68-.904 2.039-.625 3.147.639 2.529 2.202 4.955 4.595 5.988 1.481.547 3.06.778 4.635.68 1.706 0 3.637-.231 4.697-1.577.477-.71.804-1.51.958-2.352.524-2.039 1.054-4.146.863-6.253-1.033.089-2.188.15-3.004-.503-.815-.652-.999-1.896-1.359-2.929a.772.772 0 00-.265-.422.874.874 0 00-.476-.068 19.173 19.173 0 01-3.249-.136c-.68-.088-2.325-.788-2.828-.197-.367.429-.135 1.734-.421 2.338a3.231 3.231 0 01-1.835 1.693z" opacity=".05"/>
  <path fill="#FFC1C7" d="M364.608 277.52a7.884 7.884 0 10.001-15.769 7.884 7.884 0 00-.001 15.769z"/>
  <path fill="#0077B6" d="M381.893 286.716c-.054.068-.109.15-.17.218l-.333.435a25.574 25.574 0 00-4.031 6.695c-.367.163-.747.319-1.128.475-.381.157-.734.3-1.115.422-.19.081-.394.149-.591.217a.258.258 0 00-.068 0c-.415.15-.843.279-1.264.408l-.32.075c-.38.116-.761.211-1.141.292-1.314.337-2.649.58-3.997.728-1.306.158-2.62.237-3.936.237h-.407a30.521 30.521 0 01-5.438-.503l-.326-.054c-.333-.054-.68-.122-.999-.204l-.632-.143a19.739 19.739 0 01-1.985-.543 5.98 5.98 0 011.461-3.059c-1.529-1.828-4.044-2.549-5.668-4.275a5.35 5.35 0 01-.395-.517 2.148 2.148 0 01-.21-.414 1.159 1.159 0 01-.089-.361 3.186 3.186 0 01-.061-.761c-.041-1.93.048-4.132 1.543-5.342a7.015 7.015 0 012.433-1.088 29.778 29.778 0 004.418-1.781 3.5 3.5 0 01.259.952c.136.788.122 1.618.305 2.399a5.795 5.795 0 002.42 3.399 9.257 9.257 0 003.983 1.448c1.4.203 2.515-.524 3.834-1.02a4.447 4.447 0 001.583-.897 3.65 3.65 0 00.891-2.481c0-.897-.102-1.794-.048-2.719.001-.094.013-.187.034-.279a1.134 1.134 0 01.775-1.067c.255-.021.51.026.741.136l2.542.972c1.101.381 2.162.871 3.167 1.462a8.78 8.78 0 013.963 6.538z"/>
  <path fill="#000" d="M357.92 296.422l-.326-.054a11.85 11.85 0 01-.999-.204l-.632-.143a19.744 19.744 0 01-1.985-.544 32.17 32.17 0 01-3.895-1.447 16.834 16.834 0 01-.679-6.403c.082-.926.274-1.838.571-2.719 1.427 1.36 3.86.592 5.478 1.679.438.31.797.72 1.047 1.196.452.871.76 1.81.91 2.78.102.53.198 1.067.279 1.604v.51c.054.381.102.775.122 1.162.109.877.109 1.72.109 2.583z" opacity=".1"/>
  <path fill="#0077B6" d="M357.594 296.368a11.85 11.85 0 01-.999-.204l-.632-.143a19.744 19.744 0 01-1.985-.544 32.17 32.17 0 01-3.895-1.447l-.142-.061a17.331 17.331 0 01-.864-7.117 12.68 12.68 0 01.558-2.555c1.427 1.359 3.86.604 5.478 1.692a3.815 3.815 0 011.359 1.794c.265.698.463 1.42.592 2.155.149.795.292 1.59.387 2.399.022.112.033.226.034.34V293.214c.129 1.04.122 2.1.109 3.154z"/>
  <path fill="#000" d="M381.2 292.072a34.827 34.827 0 01-4.969 2.467c-.381.157-.734.3-1.115.422-.19.081-.394.149-.591.217a.258.258 0 00-.068 0c-.415.15-.843.279-1.264.408l-.32.075c0-.605 0-1.23.068-1.842.048-.483.102-.965.17-1.448 0-.088 0-.176.034-.265a.69.69 0 000-.17c.082-.462.17-.931.259-1.393a8.532 8.532 0 01.91-2.78 3.398 3.398 0 011.054-1.169c1.618-1.088 4.078-.347 5.437-1.679.268.79.452 1.605.551 2.433a15.89 15.89 0 01-.156 4.724z" opacity=".1"/>
  <path fill="#0077B6" d="M381.397 291.936l-.197.136a34.827 34.827 0 01-4.969 2.467c-.381.157-.734.3-1.115.422-.19.081-.394.149-.591.217a.258.258 0 00-.068 0c-.415.15-.843.279-1.264.408 0-.802 0-1.597.068-2.392 0-.204 0-.415.054-.619v-.278-.211c.102-.734.224-1.448.374-2.168.129-.736.327-1.457.591-2.155a3.824 3.824 0 011.36-1.794c1.617-1.088 4.078-.347 5.437-1.693.292.854.484 1.739.571 2.637a15.928 15.928 0 01-.251 5.023z"/>
  <path fill="#192534" d="M364.452 268.528c5.225 0 9.461-2.824 9.461-6.308s-4.236-6.307-9.461-6.307c-5.225 0-9.461 2.823-9.461 6.307 0 3.484 4.236 6.308 9.461 6.308z"/>
  <path fill="#000" d="M356.588 295.212v.898a.163.163 0 000 .054l-.632-.143a1.968 1.968 0 010-.36 4.383 4.383 0 011.516-3.324 1.01 1.01 0 01.21-.17 4.016 4.016 0 011.224-.679c.408-.158.84-.241 1.277-.245a.749.749 0 01.177 0c.109-.007.218-.007.326 0h-.224a4.337 4.337 0 00-2.719 1.359 1.486 1.486 0 00-.21.245 4.35 4.35 0 00-.945 2.365z" opacity=".05"/>
  <path fill="#0077B6" d="M363.507 295.661c-.001.426-.051.85-.149 1.264a30.614 30.614 0 01-5.438-.503l-.326-.054a12.26 12.26 0 01-.999-.204v-.054-.449-.449c.057-.912.368-1.79.897-2.535.06-.093.131-.18.211-.258a3.12 3.12 0 011.189-.911c.357-.17.747-.258 1.142-.258a.443.443 0 01.136 0c.093-.007.186-.007.279 0 1.719.292 3.058 2.154 3.058 4.411z"/>
  <path fill="#000" d="M375.116 294.961c-.19.081-.394.149-.591.217a4.291 4.291 0 00-1.21-2.582l-.204-.204a4.466 4.466 0 00-2.433-1.108h-.224a2.32 2.32 0 01.312 0 .809.809 0 01.184 0c.439.01.873.093 1.284.244.328.113.64.263.932.449a.808.808 0 01.204.15 4.32 4.32 0 011.746 2.834z" opacity=".05"/>
  <path fill="#0077B6" d="M374.525 295.178a.258.258 0 00-.068 0c-.415.15-.843.279-1.264.408l-.32.075c-.38.116-.761.211-1.142.292-1.313.337-2.648.58-3.996.728a5.195 5.195 0 01-.102-1.04c0-2.257 1.359-4.119 3.065-4.378.091-.007.182-.007.272 0a.464.464 0 01.129 0c.4-.001.795.087 1.156.259.338.15.646.359.911.618.074.056.143.12.204.19a4.885 4.885 0 011.155 2.848z"/>
  <path fill="#000" d="M364.452 267.902c-5.071 0-9.21-2.651-9.455-5.988v.313c0 3.487 4.242 6.307 9.469 6.307 5.226 0 9.461-2.82 9.461-6.307v-.313c-.272 3.337-4.411 5.988-9.475 5.988z" opacity=".1"/>
  <path fill="#03045E" d="M330.107 79.933a33.58 33.58 0 004.078 16.109c.306.55.619 1.1.965 1.638.04.08.09.156.15.224.374.601.78 1.182 1.217 1.74a32.213 32.213 0 004.853 5.363c.336.322.69.626 1.06.911 1.164.973 2.4 1.856 3.697 2.644l.204.136a36.692 36.692 0 003.834 1.998l1.135.469c.374.156.727.306 1.115.428.19.075.387.143.591.211h.095c.412.149.834.285 1.264.408l.313.074c.381.116.768.218 1.149.293.516.136 1.026.251 1.556.346.795.157 1.618.292 2.433.388 1.306.156 2.621.233 3.936.231h.401a31.278 31.278 0 005.437-.51c.11-.011.219-.029.327-.054.333-.055.679-.123.999-.204.217-.041.415-.089.632-.143.68-.15 1.359-.326 1.985-.537.401-.129.795-.251 1.189-.387a30.725 30.725 0 002.352-.918c.119-.039.235-.087.347-.143l.149-.068a30.95 30.95 0 002.936-1.515 31.623 31.623 0 002.359-1.496h.047a2.78 2.78 0 00.354-.244 33.654 33.654 0 00-4.093-57.335 33.652 33.652 0 00-49.066 29.943z"/>
  <path fill="#0077B6" d="M371.235 93.269c.497.436.842 1.02.986 1.665-.979.258-1.978-.225-2.889-.68a36.859 36.859 0 00-8.883-2.862 1.36 1.36 0 01-.68-.258 1.158 1.158 0 01.041-1.427c.34-.354.978-.306 1.441-.326a13.128 13.128 0 019.984 3.86v.028z"/>
  <path fill="#FBBEBE" d="M361.291 90.563a4.069 4.069 0 01-2.249 2.263c-.551.198-1.142.232-1.7.388a1.884 1.884 0 00-1.318 1.04 2.227 2.227 0 00-.102.734c-.089 2.345-.157 4.758.781 6.933.809 1.862 2.291 3.33 3.759 4.724 1.713 1.638 3.528 3.296 5.784 4.03 1.319.429 2.875.476 3.97-.373a5.94 5.94 0 001.108-1.285c.763-1 1.402-2.088 1.903-3.242.931-2.393.618-5.071.292-7.62a.611.611 0 00-.163-.407.64.64 0 00-.476-.082 2.8 2.8 0 01-2.834-1.631 4.221 4.221 0 01-.156-1.495l.047-2.91a2.453 2.453 0 00-.109-.924 2.323 2.323 0 00-1.216-1.053 30.113 30.113 0 00-4.948-1.951c-.748-.218-1.319-.585-1.652.217-.333.802-.333 1.802-.721 2.644z"/>
  <path fill="#000" d="M361.291 90.563a4.069 4.069 0 01-2.249 2.263c-.551.198-1.142.232-1.7.388a1.884 1.884 0 00-1.318 1.04 2.227 2.227 0 00-.102.734c-.089 2.345-.157 4.758.781 6.933.809 1.862 2.291 3.33 3.759 4.724 1.713 1.638 3.528 3.296 5.784 4.03 1.319.429 2.875.476 3.97-.373a5.94 5.94 0 001.108-1.285c.763-1 1.402-2.088 1.903-3.242.931-2.393.618-5.071.292-7.62a.611.611 0 00-.163-.407.64.64 0 00-.476-.082 2.8 2.8 0 01-2.834-1.631 4.221 4.221 0 01-.156-1.495l.047-2.91a2.453 2.453 0 00-.109-.924 2.323 2.323 0 00-1.216-1.053 30.113 30.113 0 00-4.948-1.951c-.748-.218-1.319-.585-1.652.217-.333.802-.333 1.802-.721 2.644z" opacity=".1"/>
  <path fill="#FBBEBE" d="M369.162 92.922a8.877 8.877 0 008.877-8.877 8.877 8.877 0 10-8.877 8.877z"/>
  <path fill="#F2F2F2" d="M357.37 112.966a32.552 32.552 0 006.368.619h.401a31.387 31.387 0 005.438-.51c.11-.011.219-.029.326-.055.333-.054.68-.122.999-.204.218-.04.415-.088.632-.142.68-.15 1.36-.327 1.985-.537.401-.129.795-.252 1.19-.388.795-.278 1.59-.577 2.351-.917a16.792 16.792 0 01-.482-1.842 20.308 20.308 0 01-.258-4.024c0-1.081.047-2.155 0-3.229a7.963 7.963 0 00-.374-2.569 3.283 3.283 0 00-1.659-1.923c-1.013-.449-2.535-.68-3.534-.177a2.362 2.362 0 00-.326.21 1.693 1.693 0 00-.49.68c-.326.816-.68 1.638-.992 2.454a7.865 7.865 0 01-.795 1.618 4.015 4.015 0 01-4.398 1.447 2.528 2.528 0 01-.292-.115c-1.36-.551-2.604-1.74-4.024-1.421a2.683 2.683 0 00-1.822 1.659 6.887 6.887 0 00-.489 2.229 29.705 29.705 0 00.245 7.137z"/>
  <path fill="#0077B6" d="M341.37 105.027c.336.323.69.627 1.06.911 1.164.973 2.4 1.857 3.697 2.644l.204.136a36.692 36.692 0 003.834 1.998l1.135.469c.374.157.727.306 1.115.428.19.075.387.143.591.211h.095c.412.15.834.286 1.264.408l.313.075c.381.115.768.217 1.149.292.516.136 1.026.251 1.556.347a31.93 31.93 0 002.433.387c1.306.156 2.621.233 3.936.231h.401a31.278 31.278 0 005.437-.51c.11-.011.219-.029.327-.054.333-.054.679-.122.999-.204.217-.041.414-.088.632-.143.68-.149 1.359-.326 1.985-.537.401-.129.795-.251 1.189-.387a30.725 30.725 0 002.352-.918c.119-.039.235-.087.347-.142l.149-.068a30.959 30.959 0 002.936-1.516 50.877 50.877 0 001.7-5.438.65.65 0 010-.108c-1.061-1.883-1.999-3.84-3.052-5.723a4.372 4.372 0 00-3.501-2.638 8.557 8.557 0 00-2.277-.421 8.584 8.584 0 01-1.305-.224c-.883-.197-1.862-.388-2.188 0a.114.114 0 00-.048.088c-.122.457-.066.943.156 1.36.15.428.347.876.449 1.243.061.175.095.359.102.544.024.796-.003 1.593-.082 2.386-.19 1.155-.829 2.175-1.128 3.296-.136.53-.204 1.081-.292 1.618a17.41 17.41 0 01-.945 3.548 2.429 2.429 0 01-.347.68c-.557.679-1.481.421-2.358.292-.639-.544-.605-1.509-.68-2.325a12.206 12.206 0 00-1.237-3.928l-.231-.49c-.68-1.407-1.359-2.807-1.998-4.22-.823-1.754-1.672-3.76-.993-5.574.198-.544.517-1.026.735-1.55a2.278 2.278 0 00.19-.856 1.358 1.358 0 00-.313-1.054.535.535 0 00-.136-.142.21.21 0 00-.081-.055 1.62 1.62 0 00-1.482-.068 6.262 6.262 0 00-.782.347 37.5 37.5 0 00-3.854 2.494 1.935 1.935 0 00-.802.932 6.66 6.66 0 01-.129.768c-.19.482-.768.625-1.264.734a15.474 15.474 0 00-9.869 7.252 7.96 7.96 0 00-.843 1.869 7.73 7.73 0 00-.251 1.305z"/>
  <path fill="#192534" d="M373.071 79.036c-1.204 1.23-3.127 1.278-4.847 1.25l.055-.68-2.413.864a6.384 6.384 0 001.583-1.7 1.077 1.077 0 00-1.175-.074c-.362.21-.664.51-.877.87a7.916 7.916 0 00-.877 7.055 1.564 1.564 0 01-1.557-.102 2.722 2.722 0 01-.999-1.264c-.142-.326-.292-.68-.632-.809a.681.681 0 00-.761.34c-.143.264-.2.565-.163.863.047.68.557 1.36.68 2.04.122.679 1.128 1.223.598 1.678a7.762 7.762 0 01-1.931.455.834.834 0 01-.557-.55c-.537-1.183-.347-2.563-.68-3.82a9.397 9.397 0 00-1.4-2.78 3.911 3.911 0 00-.53-.714 1.796 1.796 0 01-.517-.591c-.088-.245.082-.605.34-.557a10.584 10.584 0 00-1.359-1.115c.476-.598.938-1.21 1.359-1.822.157-.217.32-.482.204-.72a.72.72 0 00-.272-.265l-1.203-.816c0-.57 1.135-.36 1.312-.897a.733.733 0 000-.435l-.421-1.536 1.604.727c.185.107.398.157.611.143.422-.061.626-.558.68-.986-.043-.428.012-.86.163-1.264h2.175a1.415 1.415 0 00-.265-1.026l5.356-.3a7.477 7.477 0 012.719.191c.283.133.591.203.904.204.306 0 .618-.32.53-.619a9.732 9.732 0 012.182 1.68c.171.207.381.38.618.509a.682.682 0 00.755-.088c.149-.157.217-.435.435-.449.217-.014.245.109.326.21.307.394.556.829.741 1.292a4.62 4.62 0 001.121-.299 1.212 1.212 0 00-.203 1.36c.176.455.503.842.72 1.277.214.47.359.97.428 1.482.109.639.109 1.448-.455 1.76a1.522 1.522 0 01-1.563-.353c-1.299-.924-1.537-.653-2.542.38z"/>
  <path fill="#0077B6" d="M342.43 105.938c1.164.973 2.4 1.857 3.697 2.644l.204.136a36.692 36.692 0 003.834 1.998l1.135.469c.374.157.727.306 1.115.428.19.075.387.143.591.211-.238-.68-.394-1.359-.605-2.039a11.517 11.517 0 00-2.916-4.799c-1.169-1.169-3.031-2.875-4.758-1.842a5.45 5.45 0 00-1.359 1.312 6.068 6.068 0 00-.843 1.244c-.034.061-.061.143-.095.238zM374.749 111.743a30.564 30.564 0 002.352-.918c.119-.039.235-.087.347-.143l.149-.068a30.95 30.95 0 002.936-1.515 31.623 31.623 0 002.359-1.496h.048a13.96 13.96 0 010-2.277 1.795 1.795 0 00-.048-.761 1.786 1.786 0 00-.381-.523c-.1-.1-.193-.207-.278-.32-.768-.863-1.394-1.794-2.719-1.658-1.325.136-2.467 1.278-3.025 2.549a2.253 2.253 0 00-.149.38 26.496 26.496 0 00-.884 3.609c-.176.755-.401 1.482-.564 2.237-.041.278-.102.591-.143.904z"/>
  <path fill="url(#paint0_linear)" d="M221.533 312.001l-.299.163.299-.163z"/>
  <path fill="#575A89" d="M179.779 275.291c-2.624 7.558.442 19.826 1.862 25.298a76.09 76.09 0 011.863 12.044 25.37 25.37 0 009.638-.218l-2.297-11.276c1.638-6.681 0-24.53 0-24.53s3.717-6.899 4.078-17.414c.319-10.345 2.868-13.689 2.95-13.797 5.254 2.718 11.935 32.088 11.935 32.088-.551 7.116.109 18.066 2.297 23.98a29.735 29.735 0 011.645 11.718 3.608 3.608 0 002.977.57c3.127-.502 6.879-3.201 6.879-3.201s-1.203-31.946-2.08-33.176c-.877-1.23 0-8.102 0-8.102l-1.427-11.174s.217-18.943-1.863-22.226c-1.794-2.841-2.209-7.823-2.29-9.135v-.319l-3.168-3.8s-30.661-2.297-32.965 0c-.564.564-.911 1.849-1.121 3.467-.633 4.968.095 13.07.095 13.07s.917 6.022 2.236 12.153a26.704 26.704 0 010 11.174 33.418 33.418 0 01-1.244 12.806z"/>
  <path fill="#CBCEDA" d="M181.669 323.311c1.359 1.808 9.42 1.04 10.786.476.836-.34.775-1.917.551-3.535-.143-1.033-.353-2.086-.442-2.854-.217-1.971.68-5.968.68-5.968s-1.808 1.917-2.243 0a2.09 2.09 0 00-1.563-1.482 4.084 4.084 0 00-2.842.177c-1.427.612-3.799 1.93-3.398 3.711.598 2.515-1.536 6.117-1.536 6.117a2.72 2.72 0 000 3.399l.007-.041z"/>
  <path fill="#000" d="M181.669 323.311c1.359 1.808 9.42 1.04 10.786.476.836-.34.775-1.917.551-3.535-.863.401-2.338.741-4.758.51a14.523 14.523 0 00-1.72-.054 39.293 39.293 0 01-5.226-.102 2.612 2.612 0 00.367 2.705zM209.76 277.486c-.55 7.116.109 18.066 2.298 23.98a29.75 29.75 0 011.645 11.717 3.604 3.604 0 002.977.571c-.68-4.615-3.474-24.516-5.282-40.237a65.858 65.858 0 00-11.656-30.226l-1.917 2.107c5.254 2.739 11.935 32.088 11.935 32.088z" opacity=".1"/>
  <path fill="#FBBEBE" d="M184.958 162.393l1.36 6.573 6.552 11.004 8.075-3.446s10.977-11.5 4.078-13.145a5.964 5.964 0 01-2.291-1.02 4.75 4.75 0 01-1.787-3.962c.053-1.63.435-3.232 1.121-4.711l-14.131-4.424c.579 1.857.919 3.78 1.013 5.723.109 3.847-1.325 5.743-2.494 6.647-.443.35-.952.609-1.496.761z"/>
  <path fill="#000" d="M187.935 149.262c.578 1.857.919 3.78 1.013 5.723.255.308.53.598.823.87a11.114 11.114 0 007.68 3.092 10.947 10.947 0 003.453-.55c.053-1.63.435-3.232 1.122-4.711l-14.091-4.424z" opacity=".1"/>
  <path fill="#FBBEBE" d="M186.291 147.447a11.172 11.172 0 0022.134 2.181 11.176 11.176 0 00-10.974-13.348 11.1 11.1 0 00-7.908 3.257 11.105 11.105 0 00-3.252 7.91z"/>
  <path fill="#000" d="M184.958 162.393l1.36 6.573 6.552 11.004 8.075-3.446s10.977-11.5 4.078-13.145a5.964 5.964 0 01-2.291-1.02c1.244 3.399-3.894 10.549-3.894 10.549-.598.877-1.971.326-1.971.326-3.317-.503-9.414-10.025-10.407-11.609a4.242 4.242 0 01-1.502.768zM178.63 226.067c1.944.442 12.704 2.828 16.782 2.23 4.493-.68 13.22-1.095 13.22-1.095s5.56.299 7.266-.482v-.32l-3.167-3.799s-30.661-2.298-32.966 0c-.577.584-.924 1.869-1.135 3.466z" opacity=".1"/>
  <path fill="#03045E" d="M198.811 173.234s5.777-7.999 3.595-11.119l9.761 4.003s5.872-.714 7.993 8.054c.339 1.459.463 2.959.367 4.452a13.236 13.236 0 001.604 6.655c2.413 4.819 1.862 15.877-3.066 16.992-4.927 1.115-6.681.544-6.681.544s.68 20.037 3.507 22.341c2.828 2.304-7.259 1.754-7.259 1.754s-8.727.435-13.22 1.094c-4.493.66-17.081-2.304-17.081-2.304s1.863-8.428 2.515-13.798c.653-5.369 2.196-16.788 2.196-16.788l-11.175-15.13s-1.971-9.142 4.928-13.193 9.516-5.05 9.516-5.05 6.933 11.29 10.549 11.84c-.021-.013 1.352.537 1.951-.347z"/>
  <path fill="#000" d="M211.623 176.409s.109 3.616-.551 5.043c-.659 1.427-3.065 9.305-3.065 9.305h5.471s-2.956-3.174-2.718-4.71c.237-1.536.863-9.638.863-9.638z" opacity=".1"/>
  <path fill="#FBBEBE" d="M195.412 203.678s12.092-2.957 13.22-5.478c1.128-2.522 4.235-8.157 4.235-8.157l-1.278-1.719-5.88 4.615s-7.007 5.587-10.297 6.117c-3.29.53 0 4.622 0 4.622z"/>
  <path fill="#000" d="M195.412 203.678s12.092-2.957 13.22-5.478c1.128-2.522 4.235-8.157 4.235-8.157l-1.278-1.719-5.88 4.615s-7.007 5.587-10.297 6.117c-3.29.53 0 4.622 0 4.622z" opacity=".05"/>
  <path fill="#FBBEBE" d="M184.958 189.445v6.559h1.054a30.67 30.67 0 0114.885 3.854l1.978 1.094.53.299 3.399-7.646-3.174-2.848h-.164c-.781.075-4.139.36-5.559-.122-1.421-.483-3.032-1.917-7.022-.898-1.957.503-3.636 2.719-5.539 2.04l-.388-2.332z"/>
  <path fill="#000" d="M174.389 177.51l-2.188 2.46v5.995s1.862 18.834 7.775 20.914c5.914 2.08 16.469-1.203 16.469-1.203s2.719-7.225 1.448-7.667c-1.271-.441-11.269-3.079-11.269-3.079s.136-11.045-2.039-14.328c0 0 1.427-10.297-3.501-10.514-4.928-.218-6.695 7.422-6.695 7.422z" opacity=".1"/>
  <path fill="#03045E" d="M174.063 177.51l-2.196 2.46v5.995s1.863 18.834 7.776 20.914c5.913 2.08 16.449-1.203 16.449-1.203s2.719-7.225 1.454-7.667c-1.264-.441-11.276-3.079-11.276-3.079s.143-11.045-2.039-14.328c0 0 1.421-10.297-3.507-10.514-4.928-.218-6.661 7.422-6.661 7.422z"/>
  <path fill="#000" d="M189.356 152.191a4.333 4.333 0 01.251-2.127 1.65 1.65 0 011.727-1.006c.938.217 1.359 1.441 2.263 1.733a1.786 1.786 0 001.985-1.026 5.156 5.156 0 00.381-2.386v-2.719c0-.89.034-2.073.645-2.855.768-.972 2.563-1.4 3.759-1.359a3.148 3.148 0 012.141.863 2.788 2.788 0 002.257.802 1.958 1.958 0 001.577-1.359.05.05 0 010-.034 11.164 11.164 0 00-7.82-4.364 11.16 11.16 0 00-8.511 2.783 11.165 11.165 0 00-.281 16.405 28.79 28.79 0 01-.374-3.351z" opacity=".1"/>
  <path fill="#03045E" d="M204.778 141.785a1.975 1.975 0 001.577-1.359c.089-.354.068-.734.17-1.081.258-.863 1.176-1.312 1.788-1.964 1.237-1.312 1.155-3.467.278-5.037-.679-1.271-2.039-2.338-3.5-2.093-.884.156-1.652.788-2.549.842a5.32 5.32 0 01-2.44-.788 9.197 9.197 0 00-6.056-.537 3.466 3.466 0 00-1.665.843 13.53 13.53 0 00-.884 1.244c-1.026 1.305-2.855 1.556-4.479 1.848-1.625.293-3.467.938-4.004 2.509-.353 1.033 0 2.161.191 3.242a.933.933 0 01-.041.679c-.251.422-.89.245-1.359.347-.918.19-1.156 1.359-1.19 2.325-.041 1.08-.068 2.161-.088 3.242a3.174 3.174 0 001.026 2.719l3.616 4.343c1.604 1.93 3.303 4.173 2.984 6.661.754.34 1.658-.32 1.91-1.115a4.926 4.926 0 00-.122-2.467 29.897 29.897 0 01-.571-4.276 4.321 4.321 0 01.251-2.127 1.644 1.644 0 011.733-1.006c.938.218 1.36 1.434 2.264 1.733a1.792 1.792 0 001.984-1.026 5.143 5.143 0 00.381-2.386v-2.719c0-.992.034-2.039.646-2.854.768-.972 2.562-1.394 3.758-1.36a3.216 3.216 0 012.141.864 2.773 2.773 0 002.25.754z"/>
  <path fill="#000" d="M202.257 176.137l-3.399 14.09s-2.732-.021 3.399-14.09zM190.539 173.785s4.492 7.354 2.718 14.953l-.836.061s1.516-3.514-1.882-15.014zM187.691 215.396s-5.513-1.822-5.914 2.406c0 0 1.04-2.902 5.914-2.406zM203.63 191.083s1.094 7.667-.877 10.733a23.933 23.933 0 009.651 1.311l.68-12.044h-9.454z" opacity=".1"/>
  <path fill="#000" d="M202.889 200.952l.53.299 3.398-7.646-3.174-2.848h-.17c.041.367.925 6.953-.584 10.195z" opacity=".1"/>
  <path fill="#03045E" d="M203.63 190.757s1.094 7.667-.877 10.732a24.076 24.076 0 009.651 1.312l3.834-12.044H203.63z"/>
  <path fill="#CBCEDA" d="M213.084 318.648a2.472 2.472 0 002.128 2.169c2.97.448 10.134 1.576 11.942 2.44 2.304 1.094 11.391.326 11.826-.768a1.715 1.715 0 00-.156-1.312 3.482 3.482 0 00-1.468-1.584 4.394 4.394 0 00-.68-.292c-1.713-.571-4.941-1.781-5.818-3.052 0 0-4.03-3.528-5.179-5.438a2.637 2.637 0 00-2.107-1.311c-.959-.041-2.039.441-2.461 2.542 0 0-5.254 2.997-6.674.367 0 0-.225 4.037-1.095 5.145-.227.316-.32.71-.258 1.094z"/>
  <path fill="#000" d="M213.084 318.648a2.472 2.472 0 002.128 2.169c2.97.448 10.134 1.576 11.942 2.44 2.304 1.094 11.391.326 11.826-.768a1.715 1.715 0 00-.156-1.312 3.482 3.482 0 00-1.468-1.584c-1.482.986-4.758 1.951-12.003.816-6.906-1.074-10.325-2.135-11.99-2.848a1.472 1.472 0 00-.279 1.087z" opacity=".1"/>
  <g opacity=".1">
    <path fill="#000" d="M183.218 139.583v-.048a10.495 10.495 0 01-.333-2.487c.053.678.151 1.353.293 2.018.05.168.064.344.04.517zM189.607 149.833a3.314 3.314 0 00-.271 1.257 3.782 3.782 0 01.271-1.747 1.658 1.658 0 011.734-1.006c.938.218 1.359 1.441 2.263 1.734.398.079.812.021 1.173-.165.36-.187.647-.491.812-.862a5.14 5.14 0 00.38-2.386v-2.718c0-.891.034-2.073.646-2.855.768-.972 2.563-1.4 3.759-1.359a3.145 3.145 0 012.141.863 2.788 2.788 0 002.256.802 1.949 1.949 0 001.577-1.36c.089-.353.068-.734.17-1.08.259-.864 1.176-1.312 1.788-1.965a3.53 3.53 0 00.924-2.311 3.702 3.702 0 01-.924 2.808c-.612.679-1.529 1.101-1.788 1.957-.102.354-.081.727-.17 1.081a1.956 1.956 0 01-1.577 1.359 2.767 2.767 0 01-2.256-.809 3.189 3.189 0 00-2.141-.863c-1.196-.041-2.991.388-3.759 1.36-.612.781-.639 1.862-.646 2.854-.006.993 0 1.829 0 2.719a5.125 5.125 0 01-.38 2.379 1.772 1.772 0 01-1.985 1.026c-.917-.292-1.325-1.509-2.263-1.726a1.636 1.636 0 00-1.734 1.013zM180.608 146.822c.202.562.519 1.076.932 1.508l3.615 4.344c1.523 1.828 3.134 3.942 3.012 6.28-.109-2.141-1.598-4.078-3.012-5.791l-3.615-4.343a3.167 3.167 0 01-1.027-2.719c0 .243.032.486.095.721zM190.049 158.22c.06-.192.097-.391.109-.591.029.364-.008.73-.109 1.08-.251.796-1.148 1.455-1.91 1.108.022-.157.033-.316.034-.475a1.556 1.556 0 001.876-1.122z" opacity=".1"/>
  </g>
  <path fill="#000" d="M226.433 311.811s-1.142 2.039-5.288.237l5.288-.237zM191.368 312.293s-3.575 4.214-8.082 1.36l8.082-1.36zM180.962 262.485s2.521 1.577 2.61 2.481c.088.904-1.305-.68-1.305-.68l-1.305-1.801zM179.963 274.59a5.25 5.25 0 003.113 1.217c1.889.082 1.733 2.542.496 1.808a30.852 30.852 0 01-3.609-3.025zM179.48 276.167s1.217 5.961 2.202 4.813l-2.202-4.813z" opacity=".1"/>
  <path stroke="#03045E" stroke-miterlimit="10" stroke-width="4" d="M56.612 313.496c2.039-3.745-.279-8.333-2.916-11.67-2.637-3.337-5.852-6.797-5.784-11.072.102-6.118 6.593-9.734 11.779-12.976a57.092 57.092 0 0010.576-8.503 15.62 15.62 0 003.249-4.35c1.074-2.392 1.04-5.111.972-7.728a559.85 559.85 0 00-1.292-26.161"/>
  <path fill="#57B894" d="M83.059 230.56a9.515 9.515 0 00-4.758-7.817l-2.135 4.221.062-5.111a9.521 9.521 0 00-10.551 3.803 9.517 9.517 0 005.3 14.489 9.51 9.51 0 0010.514-3.901 9.516 9.516 0 001.574-5.684h-.006zM66.046 295.124a9.517 9.517 0 11.462-7.681l-5.96 4.847 6.558-1.516a9.514 9.514 0 01-1.06 4.35zM61.336 276.602a9.515 9.515 0 01-3.025-18.712l-.054 3.929 2.161-4.275a9.514 9.514 0 019.971 9.08 9.407 9.407 0 01-.408 3.256 9.518 9.518 0 01-8.645 6.722zM84.493 261.194a9.527 9.527 0 01-7.706-3.465 9.52 9.52 0 01.022-12.114 9.52 9.52 0 017.718-3.438 9.513 9.513 0 014.18 1.161l-1.686 4.622 3.473-3.33a9.514 9.514 0 013.08 6.586 9.376 9.376 0 01-.238 2.63 9.552 9.552 0 01-8.843 7.348z"/>
  <path fill="#000" d="M81.774 233.102c-2.202.238-4.343.924-6.552 1.06-2.21.136-4.636-.394-6.036-2.107-.748-.924-1.128-2.1-1.76-3.106a6.793 6.793 0 00-2.407-2.263 9.514 9.514 0 009.323 13.593 9.514 9.514 0 008.513-7.259c-.358.014-.719.041-1.081.082zM84.493 261.194a9.52 9.52 0 01-9.973-8.818 9.514 9.514 0 01.899-4.776 7.049 7.049 0 011.916 1.917c.68 1.026 1.095 2.215 1.89 3.153 1.489 1.747 4.024 2.318 6.328 2.216 2.304-.102 4.527-.761 6.797-.972.32 0 .639-.047.965-.054a9.546 9.546 0 01-8.822 7.334zM61.336 276.602a9.51 9.51 0 01-8.351-4.143 9.517 9.517 0 01-.805-9.287 7.717 7.717 0 012.04 1.937c.74 1.046 1.202 2.25 2.072 3.215 1.611 1.794 4.316 2.426 6.75 2.365 2.433-.061 4.642-.625 6.987-.809a9.516 9.516 0 01-8.693 6.722zM66.046 295.124a9.526 9.526 0 01-12.588 4.805 9.528 9.528 0 01-4.805-12.587 9.218 9.218 0 012.093 1.869c.91 1.101 1.509 2.358 2.556 3.398 1.95 1.917 5.097 2.719 7.904 2.78a40.755 40.755 0 004.84-.265z" opacity=".1"/>
  <path fill="#656380" d="M42.223 309.187s7.53-.197 9.774-1.849c2.243-1.652 11.554-3.541 12.139-.951.585 2.589 11.317 12.914 2.814 12.955-8.503.04-19.745-1.36-22.015-2.719-2.27-1.36-2.712-7.436-2.712-7.436z"/>
  <path fill="#000" d="M67.133 318.438c-8.502.074-19.751-1.319-22.015-2.719-1.726-1.054-2.413-4.826-2.644-6.559h-.251s.475 6.069 2.718 7.476 13.52 2.773 22.016 2.719c2.453 0 3.303-.89 3.256-2.182-.32.768-1.224 1.251-3.08 1.265z" opacity=".2"/>
  <defs>
    <linearGradient id="paint0_linear" x1="221.383" x2="221.383" y1="312.164" y2="312.001" gradientUnits="userSpaceOnUse">
      <stop stop-color="gray" stop-opacity=".25"/>
      <stop offset=".54" stop-color="gray" stop-opacity=".12"/>
      <stop offset="1" stop-color="gray" stop-opacity=".1"/>
    </linearGradient>
  </defs>
</svg>
