<?xml version="1.0" encoding="iso-8859-1"?>
<!-- Generator: Adobe Illustrator 19.0.0, SVG Export Plug-In . SVG Version: 6.00 Build 0)  -->
<svg version="1.1" id="Capa_1" xmlns="http://www.w3.org/2000/svg" xmlns:xlink="http://www.w3.org/1999/xlink" x="0px" y="0px"
	 viewBox="0 0 512 512" style="enable-background:new 0 0 512 512;" xml:space="preserve" fill="#FFF">
<g>
	<g>
		<path d="M436.002,256H436h-15.041C430.397,243.456,436,227.871,436,211v-30c0-41.355-33.645-75-75-75h-90c-8.284,0-15,6.716-15,15
			c0,24.484,11.796,46.262,30,59.959V196h-75.041C220.397,183.456,226,167.871,226,151v-30.041c18.204-13.697,30-35.475,30-59.959
			c0-8.284-6.716-15-15-15h-90c-41.355,0-75,33.645-75,75v30c0,16.871,5.603,32.456,15.041,45H76c-41.462,0-76,33.534-76,75v180
			c0,8.284,6.716,15,15,15h211c8.284,0,15-6.716,15-15V346h30v105c0,8.284,6.716,15,15,15h211c8.284,0,15-6.716,15-15V331
			C512,289.539,477.467,256.001,436.002,256z M361,136c19.557,0,36.239,12.539,42.43,30H331c-19.557,0-36.239-12.539-42.43-30H361z
			 M406,196v15c0,24.813-20.187,45-45,45s-45-20.187-45-45v-16.509c4.848,0.988,9.864,1.509,15,1.509H406z M151,75.8h72.43
			C217.239,93.261,200.557,106,181,106h-72.43C114.761,88.539,131.443,75.8,151,75.8z M106,136h75c5.136,0,10.152-0.521,15-1.509
			V151c0,24.813-20.187,45-45,45s-45-20.187-45-45V136z M226,256c-8.284,0-15,6.716-15,15v60v105H91V301c0-8.284-6.716-15-15-15
			s-15,6.716-15,15v135H30V271c0-24.393,21.065-45,46-45h211.509c2.258,11.078,6.967,21.275,13.531,30H226z M482,436h-31v-75
			c0-8.284-6.716-15-15-15s-15,6.716-15,15v75H301V331c0-8.284-6.716-15-15-15h-45v-30h195c24.935,0,46,20.607,46,45V436z"/>
	</g>
</g>
<g>
</g>
<g>
</g>
<g>
</g>
<g>
</g>
<g>
</g>
<g>
</g>
<g>
</g>
<g>
</g>
<g>
</g>
<g>
</g>
<g>
</g>
<g>
</g>
<g>
</g>
<g>
</g>
<g>
</g>
</svg>
