<?xml version="1.0" encoding="iso-8859-1"?>
<!-- Generator: Adobe Illustrator 19.0.0, SVG Export Plug-In . SVG Version: 6.00 Build 0)  -->
<svg version="1.1" id="Capa_1" xmlns="http://www.w3.org/2000/svg" xmlns:xlink="http://www.w3.org/1999/xlink" x="0px" y="0px"
	 viewBox="0 0 511.999 511.999" style="enable-background:new 0 0 511.999 511.999;" fill="#FFF" xml:space="preserve">
<g>
	<g>
		<path d="M413.241,236.488c-0.504-4.168-4.3-7.143-8.461-6.636c-4.169,0.503-7.141,4.29-6.638,8.459
			c0.372,3.087,0.638,6.209,0.811,9.342H352.34c-1.159-38.688-10.656-74.883-27.045-102.655
			c-18.263-30.947-42.979-47.991-69.592-47.991c-87.502,0-158.689,71.188-158.689,158.689c0,6.614,0.412,13.277,1.225,19.805
			c0.479,3.848,3.755,6.666,7.535,6.666c0.314,0,0.631-0.019,0.95-0.06c4.167-0.518,7.124-4.317,6.606-8.484
			c-0.442-3.554-0.737-7.155-0.914-10.763h46.63c1.04,39.017,10.552,75.55,27.066,103.533c5.698,9.655,12.024,17.957,18.84,24.81
			c-2.497,0.556-4.659,2.349-5.552,4.945c-1.365,3.971,0.748,8.297,4.72,9.661c16.562,5.689,33.917,8.574,51.585,8.574
			c87.501,0,158.689-71.188,158.689-158.689C414.392,249.277,414.004,242.815,413.241,236.488z M202.961,122.257
			c-6.412,6.782-12.323,14.821-17.606,23.99c-4.171-2.415-8.227-5.043-12.149-7.879
			C182.392,131.889,192.368,126.458,202.961,122.257z M247.659,398.468c-18.049-3.183-35.017-17.033-48.453-39.802
			c-0.301-0.511-0.582-1.046-0.877-1.562c15.637-6.93,32.168-10.934,49.33-11.932V398.468z M247.659,262.86v67.089
			c-19.577,1.03-38.421,5.586-56.217,13.581c-10.379-23.218-16.362-51.101-17.194-80.672L247.659,262.86L247.659,262.86z
			 M247.659,247.654h-73.37c0.368-11.511,1.512-22.863,3.441-33.839c0.727-4.136-2.037-8.078-6.172-8.805
			c-4.14-0.728-8.079,2.037-8.806,6.172c-2.08,11.838-3.303,24.074-3.677,36.471h-46.626c2.196-39.549,20.483-74.872,48.408-99.523
			c5.596,4.284,11.455,8.178,17.533,11.658c-3.593,7.844-6.785,16.303-9.498,25.348c-1.206,4.023,1.076,8.261,5.097,9.468
			c4.021,1.207,8.26-1.076,9.468-5.097c2.424-8.082,5.282-15.701,8.507-22.799c17.495,7.897,36.378,12.612,55.696,13.792V247.654z
			 M247.659,165.268c-16.881-1.142-33.379-5.269-48.716-12.091c4.528-7.736,9.562-14.597,15.031-20.402
			c10.34-10.975,21.852-17.725,33.685-19.838V165.268z M337.12,247.653h-74.255v-66.956c19.862-0.674,39.021-4.96,57.126-12.773
			C330.249,190.899,336.198,218.437,337.12,247.653z M337.155,262.86c-0.826,29.407-6.746,57.15-17.017,80.292
			c-18.007-7.907-37.445-12.467-57.272-13.297V262.86H337.155z M262.865,112.783c18.378,2.883,35.679,16.805,49.333,39.944
			c0.311,0.527,0.601,1.081,0.907,1.614c-15.943,6.754-32.788,10.483-50.24,11.137V112.783z M262.865,398.609v-53.531
			c17.438,0.807,34.533,4.797,50.414,11.665c-0.363,0.637-0.711,1.295-1.081,1.922C298.544,381.804,281.242,395.726,262.865,398.609
			z M308.464,389.127c6.052-6.432,11.696-14.034,16.831-22.733c0.555-0.941,1.078-1.917,1.616-2.875
			c4.464,2.521,8.797,5.287,12.981,8.288C330.248,378.819,319.705,384.667,308.464,389.127z M352.079,361.901
			c-5.84-4.425-11.968-8.419-18.327-11.973c11.285-25.198,17.76-55.302,18.607-87.068h46.645
			C397.068,302.038,379.347,337.134,352.079,361.901z"/>
	</g>
</g>
<g>
	<g>
		<path d="M411.466,122.933l-5.102-11.705c-1.677-3.848-6.157-5.609-10.008-3.931c-3.849,1.678-5.609,6.159-3.931,10.008
			l5.102,11.705c1.246,2.861,4.04,4.567,6.974,4.567c1.014,0,2.046-0.205,3.034-0.636
			C411.384,131.263,413.144,126.782,411.466,122.933z"/>
	</g>
</g>
<g>
	<g>
		<path d="M381.035,136.198l-5.102-11.705c-1.677-3.848-6.156-5.61-10.008-3.931c-3.849,1.678-5.609,6.159-3.931,10.008
			l5.102,11.705c1.247,2.861,4.041,4.567,6.974,4.567c1.014,0,2.046-0.205,3.034-0.636
			C380.953,144.528,382.712,140.047,381.035,136.198z"/>
	</g>
</g>
<g>
	<g>
		<path d="M446.946,143.615c-4.176-0.466-7.925,2.565-8.379,6.739c-1.085,9.998-7.022,17.765-17.647,23.089
			c-3.754,1.881-5.273,6.45-3.392,10.204c1.332,2.662,4.016,4.2,6.802,4.2c1.145,0,2.306-0.26,3.4-0.807
			c15.324-7.677,24.299-19.796,25.954-35.045C454.138,147.82,451.121,144.069,446.946,143.615z"/>
	</g>
</g>
<g>
	<g>
		<path d="M509.276,85.869c-3.469-7.959-9.831-14.087-17.908-17.255c-4.31-1.692-8.798-2.442-13.323-2.232
			c-11.6,0.516-21.966,7.187-27.306,17.3c-9.075,2.532-18.889-1.956-22.757-10.831l-2.486-5.703
			c-0.805-1.848-2.312-3.301-4.19-4.039c-1.877-0.738-3.969-0.699-5.818,0.106L351.266,91.21
			c-14.559,6.347-30.719,6.644-45.505,0.836c-12.397-4.87-22.583-13.546-29.291-24.806l105.716-46.084
			c30.056-13.1,65.17,0.691,78.273,30.749c1.678,3.848,6.159,5.611,10.008,3.931c3.849-1.678,5.609-6.159,3.931-10.008
			C457.946,8.085,413.854-9.238,376.11,7.217L262.987,56.53c-3.849,1.678-5.609,6.159-3.931,10.008
			c7.969,18.283,22.582,32.369,41.147,39.662c18.564,7.292,38.856,6.92,57.141-1.05l57.275-24.967
			c3.779,7.815,10.262,13.832,18.389,17.024c8.512,3.343,17.809,3.191,26.203-0.426c1.857-0.769,3.4-2.267,4.18-4.261
			c2.498-6.346,8.514-10.644,15.349-10.947c2.377-0.112,4.764,0.29,7.074,1.197c4.297,1.685,7.679,4.943,9.525,9.176
			c1.844,4.232,1.929,8.928,0.237,13.227c-0.965,2.457-2.429,4.608-4.347,6.392c-2.088,1.941-2.914,4.887-2.14,7.632
			c2.609,9.255,3.26,18.781,1.933,28.314c-0.578,4.159,2.325,8,6.484,8.579c0.356,0.05,0.708,0.074,1.057,0.074
			c3.735,0,6.991-2.752,7.521-6.556c1.417-10.193,0.983-20.382-1.291-30.347c2.059-2.558,3.712-5.409,4.934-8.522
			C512.905,102.659,512.745,93.827,509.276,85.869z"/>
	</g>
</g>
<g>
	<g>
		<path d="M492.843,169.735c-3.644-2.083-8.291-0.817-10.373,2.829c-7.469,13.074-18.737,23.174-32.585,29.21
			c-35.177,15.334-76.274-0.804-91.608-35.978l-17.346-39.793c-1.677-3.848-6.156-5.61-10.008-3.931
			c-3.849,1.678-5.609,6.159-3.931,10.008l17.346,39.793c13.889,31.863,45.124,50.906,77.852,50.906
			c11.296,0,22.774-2.27,33.773-7.065c16.872-7.355,30.604-19.666,39.71-35.606C497.756,176.463,496.49,171.818,492.843,169.735z"/>
	</g>
</g>
<g>
	<g>
		<path d="M118.684,402.707l-4.491-11.953c-1.476-3.931-5.86-5.918-9.791-4.443c-3.931,1.477-5.92,5.861-4.443,9.792l4.491,11.953
			c1.145,3.05,4.041,4.931,7.118,4.931c0.889,0,1.792-0.157,2.673-0.488C118.172,411.022,120.161,406.638,118.684,402.707z"/>
	</g>
</g>
<g>
	<g>
		<path d="M149.76,391.033l-4.49-11.953c-1.477-3.93-5.858-5.919-9.792-4.444c-3.93,1.477-5.92,5.861-4.444,9.791l4.49,11.953
			c1.147,3.05,4.042,4.932,7.119,4.932c0.888,0,1.792-0.157,2.673-0.488C149.246,399.348,151.236,394.965,149.76,391.033z"/>
	</g>
</g>
<g>
	<g>
		<path d="M142.384,455.846c-1.265-4.003-5.532-6.226-9.541-4.959c-11.332,3.579-21.001,2.141-28.743-4.278
			c-3.231-2.68-8.024-2.232-10.705,1c-2.68,3.232-2.232,8.026,1,10.706c7.778,6.449,16.886,9.711,26.87,9.711
			c5.174,0,10.583-0.876,16.161-2.639C141.428,464.121,143.649,459.85,142.384,455.846z"/>
	</g>
</g>
<g>
	<g>
		<path d="M186.702,396.422l-13.851-36.863c-1.476-3.931-5.861-5.918-9.791-4.443c-3.931,1.477-5.92,5.861-4.443,9.792
			l13.848,36.861c13.495,35.921-4.751,76.124-40.67,89.619c-32.394,12.171-69.213-1.568-85.644-31.96
			c-1.359-2.513-4.028-4.069-6.864-3.985c-2.596,0.061-5.157-0.461-7.563-1.553c-4.205-1.905-7.416-5.335-9.04-9.658
			c-1.624-4.323-1.466-9.018,0.449-13.231c1.905-4.205,5.335-7.417,9.659-9.041c4.324-1.626,9.025-1.468,13.236,0.443
			c2.803,1.272,6.091,0.729,8.337-1.372c2.245-2.1,3.005-5.348,1.922-8.227l-4.069-10.832c18.033-9.748,22.694-26.321,22.294-39.601
			c13.42,2.203,30.205,0.219,50.098-5.939c19.119-5.917,34.045-13.556,34.672-13.878c3.431-1.766,4.995-5.822,3.637-9.434
			c-13.683-36.421-54.448-54.918-90.868-41.237l-26.267,9.868c-17.644,6.629-31.65,19.731-39.438,36.894
			c-7.79,17.162-8.427,36.331-1.798,53.974c1.476,3.931,5.861,5.919,9.791,4.443c3.931-1.477,5.92-5.861,4.443-9.792
			c-5.2-13.841-4.699-28.878,1.412-42.342c6.111-13.464,17.097-23.743,30.939-28.942l26.267-9.868
			c26.379-9.91,55.663,1.698,68.45,26.026c-19.193,8.706-57.033,22.003-77.557,12.689c-2.737-1.242-5.95-0.755-8.197,1.244
			c-2.246,1.999-3.103,5.134-2.187,7.997c0.351,1.096,8.284,26.941-17.978,36.807c-3.931,1.477-5.92,5.861-4.443,9.792l1.876,4.994
			c-3.349,0.159-6.69,0.844-9.919,2.057c-8.129,3.055-14.58,9.093-18.158,16.992c-3.594,7.904-3.891,16.734-0.837,24.863
			s9.091,14.578,16.996,18.16c3.05,1.384,6.227,2.28,9.487,2.677c15.625,25.657,43.585,40.588,72.603,40.587
			c9.895,0,19.917-1.738,29.609-5.379C180.914,489.18,203.145,440.192,186.702,396.422z"/>
	</g>
</g>
<g>
</g>
<g>
</g>
<g>
</g>
<g>
</g>
<g>
</g>
<g>
</g>
<g>
</g>
<g>
</g>
<g>
</g>
<g>
</g>
<g>
</g>
<g>
</g>
<g>
</g>
<g>
</g>
<g>
</g>
</svg>
