<svg id="Capa_1" enable-background="new 0 0 512.007 512.007" height="512" viewBox="0 0 512.007 512.007" width="512" xmlns="http://www.w3.org/2000/svg"><g><path d="m504.475 140.883-23.859-13.699v-112.181c0-8.284-6.716-15-15-15h-79.768c-8.284 0-15 6.716-15 15v49.16l-107.012-61.44c-4.625-2.654-10.312-2.654-14.938 0l-241.36 138.574c-4.658 2.675-7.531 7.637-7.531 13.009v70c-.345 11.176 12.95 18.871 22.469 13.008 0 0 9.882-5.673 9.882-5.673v265.362c0 8.284 6.716 15 15 15h418.02c8.284 0 15-6.716 15-15v-265.362l9.161 5.26c4.642 2.665 10.35 2.654 14.984-.027 4.632-2.682 7.484-7.629 7.484-12.981v-70c0-5.373-2.873-10.335-7.532-13.01zm-103.627-110.88h49.768v79.957l-49.768-28.574zm-189.76 452h-89.393v-150.093h89.393zm239.289 0h-209.289v-165.093c0-8.284-6.716-15-15-15h-119.393c-8.284 0-15 6.716-15 15v165.094h-29.338v-267.587l194.01-111.388 194.01 111.388zm31.63-284.019-218.171-125.261c-4.625-2.654-10.312-2.654-14.938 0l-218.891 125.675v-35.407l226.36-129.962 225.64 129.548z"/><path d="m271.101 316.66v120.49c0 8.284 6.716 15 15 15h119.491c8.284 0 15-6.716 15-15v-120.49c0-8.284-6.716-15-15-15h-119.491c-8.284 0-15 6.716-15 15zm30 75h30v30.49h-30zm60 30.491v-30.49h29.491v30.49zm29.491-60.491h-29.491v-30h29.491zm-59.491-30v30h-30v-30z"/><path d="m210.967 199.538c0 24.835 20.205 45.04 45.04 45.04s45.04-20.205 45.04-45.04-20.205-45.04-45.04-45.04-45.04 20.205-45.04 45.04zm60.08 0c0 8.293-6.747 15.04-15.04 15.04s-15.04-6.747-15.04-15.04 6.747-15.04 15.04-15.04 15.04 6.747 15.04 15.04z"/></g></svg>