<svg xmlns="http://www.w3.org/2000/svg" width="24" height="24" fill="none" viewBox="0 0 24 24">
  <g clip-path="url(#clip0)">
    <path fill="#00B4D8" d="M12 24c6.627 0 12-5.373 12-12S18.627 0 12 0 0 5.373 0 12s5.373 12 12 12z"/>
    <path fill="#fff" d="M19.356 9.61a.703.703 0 00-.568-.479l-4.255-.618-1.902-3.855a.703.703 0 00-1.261 0L9.466 8.513l-4.255.618a.703.703 0 00-.39 1.2l3.079 3-.727 4.239a.703.703 0 001.02.74l3.806-2 3.806 2a.703.703 0 001.02-.74l-.727-4.238 3.079-3.001a.703.703 0 00.178-.721z"/>
  </g>
  <defs>
    <clipPath id="clip0">
      <path fill="#fff" d="M0 0h24v24H0z"/>
    </clipPath>
  </defs>
</svg>
