<svg width="512" height="512" xmlns="http://www.w3.org/2000/svg">
 <g>
  <title>background</title>
  <rect x="-1" y="-1" width="514" height="514" id="canvas_background" fill="none"/>
 </g>

 <g>
  <title>Layer 1</title>
  <circle cx="256" cy="256" fill="#407fff" r="256" id="svg_3"/>
  <path d="m412.924,205.012c-1.765,-5.43 -6.458,-9.388 -12.108,-10.209l-90.771,-13.19l-40.594,-82.252c-2.527,-5.12 -7.742,-8.361 -13.451,-8.361s-10.924,3.241 -13.451,8.362l-40.594,82.252l-90.771,13.19c-5.65,0.821 -10.345,4.779 -12.109,10.209s-0.292,11.391 3.796,15.376l65.683,64.024l-15.506,90.404c-0.965,5.627 1.348,11.315 5.967,14.671c4.62,3.356 10.743,3.799 15.797,1.142l81.188,-42.683l81.188,42.683c5.092,2.676 11.212,2.189 15.797,-1.142c4.619,-3.356 6.933,-9.043 5.968,-14.671l-15.506,-90.404l65.682,-64.024c4.088,-3.986 5.559,-9.947 3.795,-15.377z" fill="#ffffff" id="svg_6"/>
 </g>
</svg>