<svg xmlns="http://www.w3.org/2000/svg" width="24" height="24" fill="none" viewBox="0 0 24 24">
  <path fill="#F2C94C" d="M23.996 12c0-6.628-5.372-12-11.998-12C5.372 0 0 5.372 0 12s5.372 12 11.998 12c6.626 0 11.998-5.372 11.998-12z"/>
  <path fill="#F2C94C" d="M18.425 1.866a11.963 11.963 0 013.517 8.488c0 6.627-5.371 12-11.998 12-2.364 0-4.569-.684-6.427-1.866A11.96 11.96 0 0011.998 24c6.626 0 11.998-5.372 11.998-12a11.99 11.99 0 00-5.57-10.134z"/>
  <path fill="#E3FAFF" d="M17.503 11.585c0-.654-.53-1.183-1.183-1.183h-1.677c.485-1.212.52-2.206.517-2.524 0-.035.007-.159.007-.186v-.055c-.035-1.151-.387-1.503-.84-1.671a.84.84 0 00-.84.84v.084c-.004.287-.408.88-.408.88L9.996 10.89l-.052.064-.937 2.507.937 3.887c0 .118.096.213.214.213h5.803c.394 0 .73-.287.79-.678.228-1.492.752-4.955.752-5.297z"/>
  <path fill="#48D8FF" d="M9.275 18.034H7.163a.67.67 0 01-.67-.67v-6.34c0-.37.3-.67.67-.67h2.112c.37 0 .67.3.67.67v6.34c0 .37-.3.67-.67.67z"/>
  <path fill="#43C5FF" d="M9.275 16.773H7.163a.67.67 0 01-.67-.67v1.262c0 .37.3.67.67.67h2.112c.37 0 .67-.3.67-.67v-1.261c0 .37-.3.67-.67.67z"/>
  <path fill="#CCF4FF" d="M16.32 10.402h-.217c-.011.104-.028.24-.049.401a6.162 6.162 0 01-6.11 5.373v1.17c0 .119.096.214.214.214h5.803a.8.8 0 00.79-.678c.228-1.492.752-4.955.752-5.298 0-.653-.53-1.182-1.183-1.182z"/>
</svg>
