<svg width="32" height="32" xmlns="http://www.w3.org/2000/svg">

 <g>
  <title>background</title>
  <rect fill="none" id="canvas_background" height="402" width="582" y="-1" x="-1"/>
 </g>
 <g>
  <title>Layer 1</title>
  <path fill="#ffffff" id="svg_3" d="m28.555,9.571c-0.873,-2.724 -3.426,-4.697 -6.438,-4.697c-3.455,0 -6.3,2.593 -6.707,5.939c-0.001,0 -0.002,0.002 -0.003,0.002c-1.637,-0.236 -3.173,-2.795 -4.747,-7.264c-3.512,4.176 -3.298,8.804 -2.241,10.538c-2.238,0.246 -6.541,-1.062 -8.419,-2.086c3.273,7.317 7.955,10.891 12.538,11.872c1.554,0.824 3.321,1.302 5.204,1.302c0.199,0 0.395,-0.021 0.591,-0.028l-0.933,1.581l-1.971,0.646l0.159,0.487l1.91,-0.625l0.898,0.922l0.367,-0.356l-0.875,-0.897l1.06,-1.795c0.729,-0.08 1.436,-0.227 2.114,-0.438l2.021,2.583l-1.713,0.635l0.178,0.48l1.943,-0.721l1.789,0.799l0.209,-0.467l-1.826,-0.817l-2.096,-2.677c4.236,-1.555 7.271,-5.599 7.307,-10.365c0.052,-0.162 0.102,-0.318 0.141,-0.461c0.078,-0.266 2.985,-3.164 2.985,-3.164l-3.445,-0.928zm-3.798,2.463c-1.024,0 -1.854,-0.831 -1.854,-1.857c0,-1.025 0.83,-1.856 1.854,-1.856c1.025,0 1.856,0.831 1.856,1.856c0,1.026 -0.831,1.857 -1.856,1.857z"/>
  <path fill="#ffffff" id="svg_4" d="m24.885,9.249l0,0c0.038,0.073 0.066,0.152 0.066,0.24c0,0.284 -0.23,0.515 -0.514,0.515c-0.166,0 -0.307,-0.083 -0.399,-0.203c-0.052,0.115 -0.081,0.242 -0.081,0.376c0,0.513 0.415,0.928 0.928,0.928c0.514,0 0.928,-0.415 0.928,-0.928c-0.001,-0.512 -0.417,-0.928 -0.928,-0.928z"/>
 </g>
</svg>