<svg width="32" height="32" xmlns="http://www.w3.org/2000/svg">

 <g>
  <title>background</title>
  <rect fill="none" id="canvas_background" height="402" width="582" y="-1" x="-1"/>
 </g>
 <g>
  <title>Layer 1</title>
  <path fill="#08045e" id="svg_3" d="m21.227,17.688l-2.109,-0.062c-0.584,-1.824 -2.293,-3.145 -4.311,-3.145c-2.313,0 -4.218,1.737 -4.49,3.976c-0.001,0 -0.001,0.003 -0.001,0.003c-1.096,-0.158 -2.125,-1.873 -3.178,-4.864c-2.351,2.795 -2.208,5.894 -1.5,7.055c-1.5,0.164 -4.381,-0.712 -5.638,-1.397c2.191,4.898 5.326,7.291 8.394,7.947c1.04,0.553 2.224,0.872 3.484,0.872c0.134,0 0.264,-0.013 0.396,-0.021l-0.624,1.061l-1.319,0.432l0.107,0.326l1.278,-0.418l0.603,0.618l0.245,-0.239l-0.585,-0.601l0.709,-1.203c0.488,-0.053 0.961,-0.151 1.416,-0.293l1.353,1.729l-1.147,0.424l0.119,0.322l1.301,-0.482l1.197,0.535l0.14,-0.312l-1.221,-0.548l-1.403,-1.792c2.791,-1.023 4.803,-3.661 4.889,-6.785c0.001,-0.051 1.938,-0.126 1.938,-0.126l-1.957,-1.381l1.914,-1.631zm-4.653,1.586c-0.686,0 -1.243,-0.558 -1.243,-1.244s0.557,-1.242 1.243,-1.242c0.688,0 1.242,0.556 1.242,1.242s-0.554,1.244 -1.242,1.244z"/>
  <path id="svg_4" d="m16.66,17.409l0,0c0.025,0.05 0.044,0.103 0.044,0.161c0,0.189 -0.154,0.346 -0.345,0.346c-0.109,0 -0.203,-0.057 -0.267,-0.137c-0.034,0.078 -0.054,0.162 -0.054,0.251c0,0.345 0.277,0.622 0.621,0.622c0.343,0 0.621,-0.277 0.621,-0.622c0.001,-0.342 -0.277,-0.621 -0.62,-0.621z"/>
  <path fill="#08045e" id="svg_5" d="m23.975,13.765l0.004,0.351l0,3.175c-0.168,-0.158 -0.395,-0.255 -0.643,-0.255c-0.52,0 -0.941,0.421 -0.941,0.941c0,0.519 0.422,0.938 0.941,0.938c0.473,0 0.862,-0.35 0.93,-0.803l0.012,0l0,-3.289l2.611,-0.479l0,2.336c-0.168,-0.157 -0.394,-0.254 -0.643,-0.254c-0.52,0 -0.939,0.422 -0.939,0.94c0,0.52 0.42,0.941 0.939,0.941c0.473,0 0.863,-0.35 0.929,-0.805l0.011,0l0,-3.699l0.018,-0.003l-0.005,-0.635l-3.224,0.6zm2.912,0.406l-2.611,0.479l0,-0.307l2.611,-0.483l0,0.311z"/>
  <path fill="#08045e" id="svg_6" d="m31.996,5.771l-2.834,0.525l0.003,0.308l0,2.792c-0.147,-0.138 -0.347,-0.223 -0.565,-0.223c-0.457,0 -0.826,0.37 -0.826,0.827c0,0.456 0.371,0.826 0.826,0.826c0.416,0 0.758,-0.307 0.818,-0.706l0.009,0l0,-2.892l2.296,-0.421l0,2.055c-0.148,-0.14 -0.347,-0.225 -0.564,-0.225c-0.456,0 -0.827,0.371 -0.827,0.827c0,0.457 0.371,0.827 0.827,0.827c0.416,0 0.759,-0.307 0.816,-0.707l0.01,0l0,-3.253l0.015,-0.003l-0.004,-0.557zm-0.273,0.882l-2.297,0.421l0,-0.269l2.297,-0.425l0,0.273z"/>
  <path fill="#08045e" id="svg_7" d="m22.966,6.085l0.011,0l0,-2.892l2.295,-0.422l0,2.055c-0.147,-0.139 -0.346,-0.224 -0.563,-0.224c-0.456,0 -0.827,0.371 -0.827,0.827c0,0.457 0.371,0.828 0.827,0.828c0.416,0 0.759,-0.307 0.817,-0.707l0.01,0l0,-3.253l0.015,-0.003l-0.005,-0.558l-2.834,0.525l0.002,0.308l0,2.792c-0.148,-0.138 -0.347,-0.223 -0.564,-0.223c-0.457,0 -0.826,0.37 -0.826,0.827s0.369,0.826 0.826,0.826c0.414,0.001 0.757,-0.307 0.816,-0.706zm0.011,-3.314l2.295,-0.425l0,0.273l-2.295,0.421l0,-0.269z"/>
 </g>
</svg>