<svg xmlns="http://www.w3.org/2000/svg" width="624" height="370" fill="none" viewBox="0 0 624 370">
  <g clip-path="url(#clip0)">
    <path fill="#08045E" d="M232.52 254.171c9.78 0 17.708-8.536 17.708-19.067s-7.928-19.067-17.708-19.067c-9.78 0-17.708 8.536-17.708 19.067s7.928 19.067 17.708 19.067z"/>
    <path fill="#fff" d="M230.832 243.153l-5.3-7.338 3.082-2.581 2.51 3.474 8.478-9.637 2.835 2.893-11.605 13.189zM570.906 60.586H307.658V0h263.248v60.586z"/>
    <path fill="#08045E" d="M341.769 45.683c7.894 0 14.294-6.89 14.294-15.39s-6.4-15.39-14.294-15.39-14.293 6.89-14.293 15.39 6.399 15.39 14.293 15.39z"/>
    <path fill="#3F3D56" d="M374.78 20.032a2.3 2.3 0 00-1.685.752 2.671 2.671 0 00-.697 1.814c0 .68.251 1.332.697 1.813a2.3 2.3 0 001.685.752h173.931a2.299 2.299 0 001.68-.754c.446-.48.696-1.132.696-1.811 0-.68-.25-1.331-.696-1.812a2.299 2.299 0 00-1.68-.754H374.78zM374.78 35.423a2.299 2.299 0 00-1.686.747c-.447.48-.7 1.132-.701 1.813a2.67 2.67 0 00.694 1.815 2.3 2.3 0 001.683.755h109.961c.313 0 .623-.065.913-.194.289-.129.552-.317.774-.556.222-.238.398-.52.518-.832.12-.312.181-.646.181-.983 0-.337-.061-.671-.181-.983a2.581 2.581 0 00-.518-.832 2.387 2.387 0 00-.774-.556c-.29-.129-.6-.195-.913-.194H374.78z"/>
    <path fill="#CCC" d="M570.906 60.586H307.658V0h263.248v60.586zm-259.229-4.328h255.21V4.328h-255.21v51.93z"/>
    <path fill="#fff" d="M570.906 136.318H307.658V75.732h263.248v60.586z"/>
    <path fill="#E6E6E6" d="M341.769 121.415c7.894 0 14.294-6.89 14.294-15.39s-6.4-15.39-14.294-15.39-14.293 6.89-14.293 15.39 6.399 15.39 14.293 15.39zM374.78 95.764a2.3 2.3 0 00-1.685.752 2.671 2.671 0 00-.697 1.814c0 .68.251 1.332.697 1.813a2.302 2.302 0 001.685.752h173.931a2.3 2.3 0 001.68-.754c.446-.48.696-1.132.696-1.811 0-.68-.25-1.331-.696-1.812a2.299 2.299 0 00-1.68-.754H374.78zM374.78 111.155a2.297 2.297 0 00-1.686.748c-.447.48-.7 1.131-.701 1.812a2.67 2.67 0 00.694 1.815 2.299 2.299 0 001.683.755h109.961c.313.001.623-.065.913-.194.289-.128.552-.317.774-.556.222-.238.398-.521.518-.832a2.74 2.74 0 000-1.965 2.575 2.575 0 00-.518-.833 2.396 2.396 0 00-.774-.556c-.29-.129-.6-.195-.913-.194H374.78z"/>
    <path fill="#E6E6E6" d="M570.906 136.318H307.658V75.732h263.248v60.586zm-259.229-4.328h255.21V80.06h-255.21v51.93z"/>
    <path fill="#fff" d="M570.906 212.05H307.658v-60.586h263.248v60.586z"/>
    <path fill="#E6E6E6" d="M341.769 197.148c7.894 0 14.294-6.891 14.294-15.391s-6.4-15.391-14.294-15.391-14.293 6.891-14.293 15.391 6.399 15.391 14.293 15.391zM374.78 171.497a2.3 2.3 0 00-1.685.751 2.67 2.67 0 00-.697 1.814c0 .68.251 1.333.697 1.814a2.3 2.3 0 001.685.751h173.931a2.3 2.3 0 001.68-.754c.446-.48.696-1.132.696-1.811s-.25-1.331-.696-1.812a2.295 2.295 0 00-1.68-.753H374.78zM374.78 186.887a2.301 2.301 0 00-1.686.748c-.447.48-.7 1.131-.701 1.812a2.67 2.67 0 00.694 1.815 2.299 2.299 0 001.683.755h109.961c.313.001.623-.065.913-.194.289-.128.552-.317.774-.556.222-.238.398-.521.518-.832a2.74 2.74 0 000-1.965 2.575 2.575 0 00-.518-.833 2.396 2.396 0 00-.774-.556c-.29-.129-.6-.194-.913-.194H374.78z"/>
    <path fill="#E6E6E6" d="M570.906 212.05H307.658v-60.586h263.248v60.586zm-259.229-4.328h255.21v-51.93h-255.21v51.93z"/>
    <path fill="#FFB8B8" d="M134.476 226.424a7.438 7.438 0 01-1.241-2.818 7.728 7.728 0 01-.018-3.119 7.461 7.461 0 011.21-2.835 6.849 6.849 0 012.21-2.017l-1.396-16.379 9.037-3.341 1.67 23.16a7.761 7.761 0 01.264 5.134c-.498 1.688-1.555 3.121-2.969 4.027a6.315 6.315 0 01-4.703.888c-1.616-.334-3.062-1.295-4.064-2.7z"/>
    <path fill="#CCC" d="M144.178 132.417s6.201-14.013 11.712-9.084c5.511 4.93-7.555 46.366-7.555 46.366l-1.987 40.225-10.474-1.127-2.961-39.19 11.265-37.19z"/>
    <path fill="#FFB8B8" d="M60.993 339.746l7.774 6.777 27.974-29.064-11.474-10.001-24.274 32.288z"/>
    <path fill="#2F2E41" d="M61.065 335.285l15.31 13.345c2.588 2.256 4.238 5.526 4.586 9.091.349 3.565-.632 7.134-2.727 9.92l-.256.341-25.068-21.849 8.155-10.848z"/>
    <path fill="#FFB8B8" d="M169.039 358.557h10.002l4.759-41.543-14.763.001.002 41.542z"/>
    <path fill="#2F2E41" d="M166.488 355.041l19.698-.001h.001c3.329 0 6.522 1.424 8.876 3.959 2.354 2.535 3.677 5.973 3.677 9.558v.439l-32.252.001v-13.956zM186.59 163.805s18.765 24.598 14.686 49.195a4498.65 4498.65 0 01-7.343 43.046l-6.527 55.345s2.448 15.072-.816 18.956c0 0 4.896 9.155-4.079 12.669-8.974 3.514-13.817-1.214-13.817-1.214s-6.58-10.206-2.5-12.842l1.718-108.612-65.355 91.921s-1.202 11.182-9.576 11.301l-10.005 8.026-11.422-7.028 5.71-7.906s-3.263-8.785 4.08-10.542l42.425-59.737 10.606-30.747s5.711-23.719 21.213-33.383v-10.282l31.002-8.166z"/>
    <path fill="#CCC" d="M154.364 121.198c2.47-3.143 5.928-5.199 9.714-5.774 3.787-.576 7.638.368 10.82 2.652l.678.487c7.242 8.83 12.109 19.621 14.078 31.209l3.055 17.986-38.345 8.944-8.99-33.383a20.208 20.208 0 01.776-12.812c1.643-4.042 4.549-7.336 8.214-9.309z"/>
    <path fill="#FFB8B8" d="M217.363 230.248a7.555 7.555 0 01-2.853-1.818 8.285 8.285 0 01-1.871-2.947 8.798 8.798 0 01-.537-3.523 8.72 8.72 0 01.897-3.437l-11.062-14.577 6.588-9.398 15.352 20.822c1.597 1.074 2.772 2.742 3.303 4.688a8.864 8.864 0 01-.422 5.866c-.803 1.834-2.203 3.287-3.935 4.084a7.184 7.184 0 01-5.46.24z"/>
    <path fill="#CCC" d="M170.681 134.376s-2.447-17.57 5.711-16.692c8.159.879 20.397 49.196 20.397 49.196l22.028 39.532-10.606 6.149-26.108-35.14-11.422-43.045z"/>
    <path fill="#2F2E41" d="M185.621 108.689h-38.85a2.914 2.914 0 01-2.131-.951 3.383 3.383 0 01-.884-2.294V87.412c0-6.408 2.364-12.554 6.573-17.085 4.208-4.531 9.916-7.077 15.867-7.077 5.951 0 11.659 2.546 15.867 7.077 4.208 4.531 6.573 10.677 6.573 17.085v18.032a3.383 3.383 0 01-.884 2.294 2.916 2.916 0 01-2.131.951z"/>
    <path fill="#FFB8B8" d="M170.807 108.27c9.086 0 16.452-7.931 16.452-17.715 0-9.784-7.366-17.715-16.452-17.715-9.086 0-16.452 7.931-16.452 17.715 0 9.784 7.366 17.715 16.452 17.715z"/>
    <path fill="#2F2E41" d="M193.944 89.215H173.24l-.213-3.672-1.061 3.672h-3.188l-.421-7.278-2.104 7.278h-6.169v-.36c0-10.54 6.94-19.114 15.471-19.114h2.919c8.53 0 15.47 8.575 15.47 19.114v.36z"/>
    <path fill="#2F2E41" d="M174.097 112.055c-.253 0-.506-.021-.756-.062l-24.644-4.088V80.267c0-2.823 1.042-5.531 2.896-7.528 1.854-1.996 4.369-3.118 6.991-3.118h17.241l-.671.736c-9.345 10.244-2.305 26.855 2.723 35.845.369.646.536 1.403.476 2.158a3.681 3.681 0 01-.81 2.04c-.428.53-.958.952-1.553 1.238a4.205 4.205 0 01-1.893.417z"/>
    <path fill="#08045E" d="M606.291 49.334c9.78 0 17.709-8.537 17.709-19.067s-7.929-19.068-17.709-19.068c-9.779 0-17.708 8.537-17.708 19.068 0 10.53 7.929 19.067 17.708 19.067z"/>
    <path fill="#fff" d="M604.604 38.315l-5.3-7.337 3.082-2.581 2.51 3.474 8.478-9.637 2.835 2.892-11.605 13.19z"/>
    <path fill="#CCC" d="M255.88 369.862H.67a.647.647 0 01-.474-.211.752.752 0 01-.196-.51c0-.192.07-.375.196-.51a.645.645 0 01.474-.212h255.21c.177 0 .348.076.473.212a.747.747 0 01.196.51.75.75 0 01-.196.51.646.646 0 01-.473.211z"/>
  </g>
  <defs>
    <clipPath id="clip0">
      <path fill="#fff" d="M0 0h624v369.862H0z"/>
    </clipPath>
  </defs>
</svg>
